<?xml version="1.0" encoding="utf-8"?>
<!-- Generator: Adobe Illustrator 27.0.1, SVG Export Plug-In . SVG Version: 6.00 Build 0)  -->
<svg version="1.1" id="Layer_1" xmlns="http://www.w3.org/2000/svg" xmlns:xlink="http://www.w3.org/1999/xlink" x="0px" y="0px"
	 viewBox="0 0 700 100" style="enable-background:new 0 0 700 100;" xml:space="preserve">
<path d="M158.11,60.6c-0.96,2.2-1.89,4.35-2.83,6.49c-0.47,1.07-1.65,1.55-2.6,0.82c-1.23-0.95-2.33-2.09-3.36-3.25
	c-0.77-0.87-1.34-1.91-1.99-2.85c-0.54,0-0.96-0.11-1.29,0.02c-5.2,2.01-10.43,2.63-15.8,0.31c-2.52,2.26-5.58,2.79-8.71,3.35
	c-6.33,1.15-12.59,2.65-18.92,3.82c-7.49,1.39-15,2.69-22.53,3.86c-4.15,0.64-8.36,0.97-12.54,1.34
	c-6.18,0.55-12.03-0.81-17.62-3.36c-2.59-1.18-4.55-3.09-5.85-5.63c-0.36-0.7-0.7-1.4-1.07-2.13c-1.65-0.74-3.4-0.65-5.05-0.38
	c-4.14,0.69-8.42,0.52-12.43,2c-0.36,0.13-0.77,0.19-1.16,0.2c-1.04,0.02-1.72-0.59-2.17-1.45c-0.43-0.83-0.06-1.53,0.53-2.12
	c2.57-2.56,5.5-4.48,9.21-4.87c1.31-0.14,2.63-0.31,3.93-0.22c3.17,0.21,6.28-0.23,9.42-0.56c1.68-0.17,2.95-0.77,4.13-1.96
	c2.22-2.23,4.59-4.31,6.84-6.52c3.9-3.83,8.54-6.53,13.34-9.01c9.36-4.84,19.14-8.67,29.16-11.93c6-1.95,12.01-3.88,18.23-5.03
	c5.71-1.06,11.45-1.56,17.26-1.34c2.58,0.1,4.88,0.97,7.15,2c0.43,0.2,0.72,0.71,1.07,1.09c-2.01,1.68-2.67,2-4.86,2.13
	c-2.49,0.14-4.99,0.28-7.48,0.3c-8.34,0.04-16.45,1.42-24.43,3.84C95.1,32.75,84.78,36.6,74.86,41.51
	c-6.39,3.16-12.33,7.01-17.79,11.6c-0.89,0.75-0.88,0.76-1.76,2.67c0.5,0.13,0.97,0.4,1.42,0.36c10.1-0.74,20.08-2.36,30.06-3.98
	c5.44-0.88,10.93-1.61,16.47-1.48c0.65,0.02,1.31,0.1,1.95,0.23c0.22,0.04,0.4,0.29,0.61,0.46c0.13,0.96-0.66,0.97-1.24,1.18
	c-5.84,2.1-11.95,3.07-18.03,4.09c-6.34,1.07-12.71,2.01-19.07,2.94c-4.68,0.68-9.37,1.23-14.05,1.9c-0.84,0.12-1.65,0.5-3.1,0.96
	c1.26,0.63,1.89,1.07,2.58,1.28c5.94,1.74,11.9,3.15,18.22,2.59c8.12-0.72,16.21-1.69,24.26-2.98c9.47-1.51,18.94-3.05,28.41-4.6
	c0.88-0.14,1.73-0.45,2.8-0.73c-0.25-0.93-0.43-1.66-0.64-2.39c-1.32-4.64-1.69-9.31-0.38-14c1.14-4.07,5.5-7.79,9.61-8.36
	c1.52-0.21,2.9,0.01,4.05,1.03c0.35,0.31,0.72,0.91,0.66,1.31c-0.06,0.36-0.65,0.79-1.08,0.9c-0.75,0.18-1.61,0-2.34,0.23
	c-1.36,0.43-2.75,0.89-3.94,1.64c-0.69,0.43-1.34,1.42-1.42,2.22c-0.47,4.4-0.14,8.64,2.81,12.33c1.57,1.97,3.53,3.08,5.97,3.45
	c3.09,0.47,6.01-0.02,8.77-1.52c1.25-0.68,2.37-1.98,3.89-1.67c1.73,0.35,1.38,2.35,2.21,3.45C155.78,57.97,156.92,59.2,158.11,60.6
	z"/>
<path d="M291.22,48.94c1.88,1.93,3.45,3.51,4.99,5.11c1.12,1.16,2.47,1.9,3.96,2.5c3.82,1.54,7.74,2.5,11.88,2.49
	c2.37-0.01,4.73,0.06,7.1,0.16c0.77,0.03,1.55,0.22,2.28,0.46c0.31,0.1,0.73,0.57,0.7,0.83c-0.04,0.45-0.29,1.09-0.64,1.26
	c-4.77,2.29-9.77,3.84-15.08,4.2c-1.18,0.08-2.37,0.02-3.55,0.15c-5.23,0.59-9.48-1.55-13.31-4.79c-1.4-1.19-2.69-2.51-4.01-3.79
	c-0.83-0.8-1.78-1.09-2.89-0.77c-1.39,0.4-2.76,0.86-4.15,1.25c-1.91,0.54-3.01,0.1-3.88-1.67c-0.94-1.9-1.53-3.89-1.49-6.07
	c0.03-1.41,0.43-2.87-0.17-4.24c-3.08-0.63-3.72-0.52-6.74,1.19c-0.11,1.61,0.94,2.88,1.54,4.3c0.93,2.21,0.87,2.56-0.69,4.18
	c-1.44,1.5-2.85,3.02-4.46,4.72c-0.52-0.43-1.18-0.72-1.43-1.21c-1.29-2.58-2.5-5.19-3.68-7.82c-0.47-1.06-0.79-2.18-1.12-3.1
	c-1.95-0.87-3.64-0.51-5.58-0.36c-0.56,1.03-1.17,2.14-1.63,2.97c0.5,3.28,3.65,3.04,5.25,4.57c-1.95,3.3-3.79,4.65-6.24,5
	c-3.19,0.46-5.13-1.51-7.05-3.54c-2.67,0.5-5.21,1.15-7.8,1.4c-2.47,0.24-4.98,0.05-7.44,0.05c-4.19,3.66-8.46,4.31-12.73,0.6
	c-2.91,1.61-5.63,3.17-8.4,4.61c-1.39,0.72-2.89,1.25-4.37,1.79c-2.22,0.8-4.13,0.23-5.71-1.48c-0.71-0.77-1.41-1.55-2.24-2.48
	c-0.83,0.25-1.69,0.49-2.53,0.78c-0.87,0.3-1.69,0.76-2.57,0.97c-2.46,0.59-4.23,0.4-5.72-2.14c-0.39-0.66-0.96-1.22-1.46-1.81
	c-0.06-0.07-0.25-0.05-0.66-0.11c-0.36,0.47-0.89,1.01-1.23,1.66c-0.37,0.69-0.54,1.48-0.82,2.21c-0.47,1.22-1.31,1.94-2.69,1.88
	c-0.13-0.01-0.26,0.02-0.39,0c-3.43-0.43-6.82-0.06-10.2,0.54c-0.23,0.04-0.5-0.1-1-0.21c-0.35-0.61-0.78-1.38-1.25-2.21
	c1.86-2.42,4.36-3.91,6.58-5.71c-0.36-1.44-1.5-1.94-2.39-2.63c-1.73-1.33-2.9-3.02-3.51-5.11c-0.57-1.96-0.23-3.82,1.35-5.02
	c2.89-2.2,5.8-4.45,9.73-5.71c-0.11,0.79-0.06,1.31-0.26,1.7c-0.8,1.49-1.69,2.93-2.47,4.27c0.59,1.74,1.97,2.41,3.17,3.11
	c2.98,1.74,5.77,3.62,7.19,6.88c1.37-0.19,1.9-1.2,2.65-1.85c3.28-2.85,6.58-5.67,10.66-7.35c0.61-0.25,1.21-0.52,1.84-0.69
	c0.81-0.22,1.59-0.08,2.18,0.55c0.71,0.76,0.82,1.83,0.37,2.58c-1.11,1.84-1.92,4.02-4.75,4.13c-1.49,0.06-3.08,0.57-4.13,1.79
	c0.11,1.1,0.92,1.16,1.46,1c1.37-0.4,2.7-0.96,4.01-1.53c1.06-0.46,2.01-1.29,3.49-0.75c0.29,0.73,0.59,1.58,0.98,2.39
	c1.86,3.93,6.87,5.24,10.32,2.61c0.52-0.4,0.7-1.32,0.89-2.04c0.09-0.33-0.12-0.77-0.28-1.13c-2.39-5.27-1.47-10.56-0.04-15.81
	c0.75-2.76,2.6-4.42,5.61-4.9c0.6,1.72,0.32,3.31,0.47,4.85c0.26,2.61,0.36,5.26,0.87,7.82c0.55,2.77,1.83,5.2,4.77,6.45
	c1.65-0.69,3.38-1.31,4.99-2.13c1.41-0.72,2.67-0.87,4.09-0.07c1.54,0.87,3.27,0.89,4.99,0.83c1.78-0.07,3.26-0.43,4.22-2.27
	c0.64-1.22,1.89-2.12,3.09-3.4c-0.36-0.67-0.86-1.54-1.31-2.45c-0.74-1.53-0.48-2.4,0.95-3.31c1.49-0.95,3.14-1.35,4.89-1.25
	c1.04,0.06,2.13,0.16,3.1,0.51c4.66,1.7,3.38,1.18,8.1-0.9c1.05-0.47,2.08-0.99,3.29-1.57c0.74,1.34,1.36,2.46,2.07,3.73
	c2.85,0.7,5.61-0.26,8.39-0.92c0.35-0.08,0.69-0.41,0.93-0.7c1.99-2.45,4.8-2.94,7.56-3.39c0.69,0.73,0.44,1.32,0.08,1.91
	c-1.94,3.13-1.61,6.58-1.14,9.94c0.33,2.34,1.89,3.1,4.39,2.64C287.28,49.71,289.21,49.33,291.22,48.94z"/>
<path d="M544.86,55.92c1.81-0.42,3.58-0.68,5.41,0.13c0.81,0.36,1.79,0.43,2.7,0.44c6.2,0.09,12.27,1.3,18.4,2.04
	c0.78,0.09,1.57,0.23,2.34,0.16c1.12-0.11,1.96-1.83,1.37-2.77c-0.48-0.77-1.15-1.43-1.72-2.14c-3.22-4.05-5.84-8.4-7.08-13.51
	c-0.66-2.74-0.77-5.47-0.18-8.2c0.94-4.3,4.62-7.33,9.02-7.45c0.43-0.01,1.08,0.33,1.26,0.69c0.19,0.37,0.09,1.09-0.17,1.43
	c-0.47,0.6-1.12,1.1-1.76,1.53c-1.6,1.06-2.08,2.6-2.12,4.41c-0.07,2.77,1.18,5.09,2.59,7.31c0.91,1.43,2.16,2.64,3.14,4.04
	c0.68,0.97,1.62,0.54,2.45,0.72c0.91,3.51,1.09,3.79,3.81,6.17c2.59,2.27,5.51,4.05,8.63,5.46c6,2.71,12.24,4.76,18.59,6.51
	c15.73,4.33,31.7,7.54,47.76,10.31c5.04,0.87,10.03,2.08,15.03,3.2c0.96,0.21,1.86,0.71,3.68,1.43c-1.39,0.27-1.84,0.46-2.27,0.42
	c-6.4-0.67-12.79-1.38-19.19-2.05c-1.04-0.11-2.09-0.12-3.14-0.11c-6.19,0.07-12.33-0.25-18.43-1.43c-4.25-0.82-8.58-1.19-12.83-2
	c-4.12-0.78-8.2-1.82-12.28-2.84c-5.08-1.27-10.2-2.45-15.2-4c-3.87-1.2-7.58-2.91-11.36-4.39c-0.73-0.28-1.48-0.51-2.41-0.83
	c-2.02,1.79-4.39,3.18-6.25,5.24c-0.92,1.01-1.68,1.08-2.68,0.06c-0.92-0.93-1.95-1.32-3.14-1.37c-3.04-0.13-5.96-0.98-8.94-1.37
	c-3.5-0.46-7.07-0.41-10.62-0.56c-2.23-0.09-4.46-0.23-6.69-0.17c-1.56,0.04-3.11,0.3-4.65,0.57c-2.84,0.5-3.76,0.01-4.76-2.74
	c-0.18-0.49-0.24-1.02-0.41-1.52c-0.12-0.36-0.33-0.69-0.54-1.11c-3.78-1.06-6.62,0.47-8.98,3.26c-1.01,1.19-1.88,2.49-2.69,3.57
	c-1.3,0.23-1.83-0.39-1.98-1.2c-0.29-1.53-0.42-3.08-0.61-4.65c-0.79-1.04-1.97-1.22-3.16-1.29c-2.23-0.12-4.46-0.17-6.69-0.27
	c-0.91-0.04-1.85-0.06-2.73-0.27c-0.75-0.18-1.5-0.51-2.14-0.95c-1.54-1.05-1.49-2.98,0.12-3.84c2.46-1.31,5.02-2.22,7.91-1.97
	c1.53,0.13,3.1,0.63,4.82-0.11c-0.05-0.77,0.06-1.58-0.17-2.27c-0.9-2.75-1.93-5.45-2.84-8.19c-0.5-1.49-0.93-3.01-1.29-4.54
	c-0.24-1.02,0.23-1.83,1.22-2.2c0.85-0.32,1.73-0.6,2.63-0.74c1.58-0.25,2.84,0.31,3.6,1.79c0.42,0.82,0.89,1.62,1.22,2.48
	c1.64,4.29,3.27,8.59,4.84,12.91c1.04,2.87,1.38,3.2,4.54,3.34c1.18,0.06,2.37-0.02,3.55,0.02c1.93,0.06,3.56-0.65,5.13-1.71
	c2.43-1.64,5.07-2.78,8.04-3.01c1.2-0.09,2.39-0.08,3.29,1.32c-0.25,0.44-0.51,1.01-0.87,1.51c-1.31,1.79-2.66,3.56-4,5.33
	c-0.94-0.09-1.96-0.55-2.85,0.55c0.46,0.04,0.71,0.13,0.93,0.07C543.64,56.38,544.25,56.14,544.86,55.92z"/>
<path d="M398.53,42.73c1.63,0.05,2.91,0.12,4.19,0.12c5.93-0.01,11.82,0.36,17.59,1.9c2.43,0.65,4.76,1.47,6.86,2.9
	c1.59,1.09,2.24,2.53,1.89,4.41c-1.35,7.16-5.83,15.18-14.79,17.2c-2.81,0.63-5.68,1.16-8.54,1.37
	c-10.57,0.78-21.01-0.14-31.24-2.99c-6.58-1.83-13.17-3.61-19.71-5.6c-2.5-0.76-4.84-2-7.25-3.04c-2.88-1.24-5.53-3.06-8.77-3.39
	c-0.26-0.03-0.51-0.12-0.75-0.24c-0.98-0.48-1.89-2.09-1.58-2.93c0.39-1.08,1.24-1.7,2.36-1.84c0.64-0.08,1.31-0.01,1.96,0.09
	c2.2,0.36,4.42,0.68,6.59,1.19c0.84,0.2,1.58,0.82,2.35,1.29c1,0.61,1.89,1.5,2.97,1.83c5.28,1.61,10.59,3.11,15.91,4.57
	c0.95,0.26,2.01,0.16,3.38,0.26c-0.74-2.29-2.37-3.57-3.24-5.28c-0.9-1.75-1.91-3.45-2.7-5.25c-0.79-1.79-1.19-3.76-2.88-5.26
	c-1.05,0.17-2.16,0.35-3.27,0.53c-0.06-0.16-0.13-0.32-0.19-0.48c0.89-0.66,1.85-1.25,2.66-2c0.76-0.7,1.33-1.6,2.07-2.33
	c0.36-0.36,0.88-0.56,1.36-0.77c0.22-0.1,0.51-0.07,0.77-0.09c1.18,0.41,1.34,1.55,1.71,2.5c1.1,2.81,2.02,5.7,3.69,8.26
	c0.43,0.66,0.77,1.44,1.36,1.91c2.2,1.74,3.64,4.12,5.45,6.18c4.11,4.66,3.23,4.85,10.1,5.77c7.73,1.03,15.44,1.47,23.18,0.26
	c1.68-0.26,3.35-0.65,4.99-1.1c3.98-1.1,5.93-4.12,7.07-7.8c0.45-1.46,0.05-2.2-1.23-2.96c-2.54-1.51-5.4-1.98-8.24-2.48
	c-6.91-1.23-13.84-1.4-20.81-0.53c-4.43,0.55-8.86,1.03-13.64,1.59c-0.33-0.29-1.05-0.7-1.46-1.31c-0.99-1.49-0.81-2.78,0.76-3.68
	c1.92-1.1,3.97-2.04,6.05-2.8c4.73-1.73,9.13-4.06,13.17-7.04c1.33-0.98,2.93-1.85,3.24-4.05c-0.47-0.27-0.97-0.78-1.52-0.85
	c-3.64-0.45-7.28-1.01-10.99-0.77c-3,0.19-6.02,0.06-9.02,0.17c-6.29,0.24-12.59,0.31-18.85,1.13c-3.25,0.43-6.52,0.7-9.78,1.09
	c-5.61,0.66-11.22,1.32-16.82,2.03c-2.15,0.27-3.91-0.21-5.05-2.18c-0.44-0.75-0.29-1.71,0.48-2.03c1.2-0.5,2.44-1.08,3.7-1.2
	c10.07-0.95,20.15-1.85,30.23-2.67c3.79-0.31,7.61-0.38,11.41-0.55c3.81-0.18,7.62-0.32,11.42-0.54c5.13-0.3,10.25-0.31,15.34,0.49
	c0.9,0.14,1.82,0.33,2.64,0.7c1.65,0.75,2.03,1.7,1.84,3.48c-0.43,4.03-2.26,7.19-5.58,9.54C400.34,40.14,398.97,40.62,398.53,42.73
	z"/>
<path d="M465.64,65.91c-3.08,2.9-6.32,3.96-10.07,3.61c-1.16-0.11-2.39,0.23-3.52,0.02c-2.37-0.43-4.48-1.48-6.09-3.36
	c-1.01-1.19-2.02-2.38-2.99-3.51c-1.72,0-2.81,1.06-4.07,1.7c-2.22,1.12-4.39,2.38-6.67,3.37c-2.12,0.92-3.02,0.42-4.07-1.68
	c-0.62-1.23-0.81-2.49-0.59-3.82c1.02-6.14,4.01-10.74,10.11-12.92c2.13-0.76,3.98-0.62,5.91,0.79c2.07,1.51,3.73,3.27,4.96,5.48
	c0.45,0.8,0.92,1.59,1.35,2.4c1.62,2.99,4.18,4.61,7.48,5.17c1.4,0.24,2.79,0.75,4.49,0.04c-0.27-0.76-0.38-1.53-0.77-2.1
	c-2.61-3.8-3.79-8.04-4.03-12.58c-0.24-4.66,1.21-8.79,4-12.48c1.06-1.4,2.32-2.47,4.45-2.66c0.02,0.58,0.09,1.04,0.02,1.49
	c-0.06,0.38-0.25,0.74-0.43,1.09c-3.4,6.73-1.68,12.98,1.8,19.04c1.63,2.84,4.2,4.63,7.11,6.01c1.15,0.54,2.58,0.76,3.17,2.41
	c-0.91,2.39-2.94,3.8-5.3,4.65c-0.85,0.3-2.05-0.1-3-0.44C467.83,67.22,466.85,66.55,465.64,65.91z M440.98,56.46
	c-2.31-1.01-3.07-1.17-4.42-0.79c-1.61,0.45-2.82,1.34-3.16,3.11c-0.16,0.83,0.52,1.68,1.32,1.48c2.4-0.6,4.76-1.33,6.34-3.45
	C441.12,56.75,441.02,56.58,440.98,56.46z"/>
<path d="M494.99,42.08c1.94,2.72,0.44,5.06-0.07,7.68c0.57,0.67,1.17,1.52,1.91,2.22c1.8,1.72,3.67,3.36,5.51,5.05
	c1.27,1.17,2.37,2.44,2.57,4.17c-1.35,2.07-2.63,4.03-3.91,5.99c-0.7,1.08-1.63,1.58-2.98,1.46c-2.65-0.24-5.13-1.03-7.53-2.13
	c-0.95-0.44-1.91-0.89-2.78-1.46c-1.62-1.07-3.3-1.55-5.22-0.98c-0.35,0.1-0.76-0.04-1.35-0.08c-0.37-0.7-0.78-1.46-1.17-2.2
	c1.15-1.65,2.77-2.25,4.27-3.01c1.39-0.7,2.8-1.35,4.46-2.15c-0.6-1.14-1.13-1.99-1.51-2.91c-0.6-1.44-1.28-2.88-1.59-4.39
	c-0.37-1.8,0.32-3.44,1.95-4.39C489.82,43.63,492.07,42.27,494.99,42.08z"/>
<path d="M155.07,42.13c-0.68,2.62-1.53,4.77-2.8,6.73c-0.24,0.38-0.92,0.79-1.28,0.7c-0.55-0.13-1.24-0.58-1.47-1.07
	c-0.96-2.09-0.45-3.84,1.46-5.06C152.04,42.75,153.11,41.92,155.07,42.13z"/>
</svg>
