<?xml version="1.0" encoding="utf-8"?>
<!-- Generator: Adobe Illustrator 27.0.1, SVG Export Plug-In . SVG Version: 6.00 Build 0)  -->
<svg version="1.1" id="Layer_1" xmlns="http://www.w3.org/2000/svg" xmlns:xlink="http://www.w3.org/1999/xlink" x="0px" y="0px"
	 viewBox="0 0 16 16" style="enable-background:new 0 0 16 16;" xml:space="preserve">
<style type="text/css">
	.st0{fill:#FFFFFF;}
</style>
<rect class="st0" width="16" height="16"/>
<g>
	<path d="M9.61,6.91c-0.08,0-0.14-0.01-0.2-0.01C9.28,6.91,9.14,6.93,9.01,6.94c-0.06,0.01-0.13,0-0.19,0.01
		c-0.03,0-0.05,0.03-0.08,0.04c0.03,0.03,0.05,0.07,0.08,0.1C8.84,7.11,8.87,7.12,8.9,7.14C8.94,7.15,8.97,7.17,9,7.18
		C9.03,7.19,9.07,7.19,9.07,7.2C9.09,7.24,9.09,7.29,9.1,7.33c-0.04-0.01-0.08,0-0.12-0.02C8.83,7.23,8.67,7.14,8.52,7.05
		C8.44,7,8.37,6.99,8.28,7.01C8.25,7.01,8.2,6.98,8.18,6.95c-0.04-0.06-0.06-0.14-0.1-0.2C8.04,6.67,8.08,6.58,8.16,6.57
		c0.23-0.03,0.46-0.05,0.7-0.07C9.1,6.48,9.35,6.48,9.6,6.43c0.16-0.03,0.31,0.04,0.46,0c0.02-0.01,0.05,0.02,0.08,0.04
		c0.13-0.03,0.26-0.07,0.39,0c0.01,0.01,0.03,0,0.04,0c0.14-0.03,0.27-0.02,0.41,0c0.05,0.01,0.1-0.01,0.15-0.01
		c0.23,0.01,0.46,0.03,0.69,0.05c0.17,0.01,0.33,0.03,0.48,0.11c0.04,0.02,0.06,0.06,0.09,0.09c0.01,0.01,0.01,0.03,0.02,0.04
		c0.12,0.15,0.1,0.33-0.05,0.45c-0.04,0.03-0.07,0.07-0.11,0.11c0,0.01,0.01,0.01,0.01,0.02c0.19,0,0.39,0,0.58,0
		c0.05,0,0.1,0,0.14,0c0.15,0.03,0.31,0.05,0.46,0.09c0.15,0.04,0.28,0.12,0.39,0.24c0.23,0.26,0.27,0.57,0.24,0.89
		c-0.02,0.17-0.1,0.33-0.22,0.47c-0.19,0.22-0.38,0.43-0.62,0.59c-0.11,0.07-0.23,0.13-0.35,0.19c-0.06,0.03-0.13,0.06-0.19,0.08
		c-0.12,0.03-0.23,0.07-0.35,0.09c-0.15,0.03-0.3,0.04-0.45,0.06c-0.14,0.02-0.28,0.03-0.42,0.05c-0.02,0-0.04,0.01-0.05,0.01
		c-0.08-0.01-0.16-0.02-0.24-0.02c-0.08-0.01-0.15-0.01-0.23-0.01c-0.05,0-0.1,0-0.15,0c-0.04,0-0.09-0.01-0.13-0.02
		c-0.01,0-0.02-0.01-0.02,0c-0.1,0.04-0.19,0.02-0.28-0.01c-0.01,0-0.03-0.01-0.04,0c-0.07,0.07-0.13,0.02-0.2,0.01
		c-0.07-0.01-0.13,0-0.21,0C9.9,9.96,9.9,9.93,9.91,9.9C9.85,9.92,9.8,10.02,9.73,9.91c-0.02,0-0.04,0.01-0.07,0.02
		C9.64,9.81,9.54,9.87,9.48,9.84C9.36,9.78,9.23,9.77,9.13,9.67C9.1,9.65,9.07,9.63,9.04,9.61C9.03,9.6,9.02,9.58,9.01,9.57
		c0.01-0.01,0.03-0.03,0.04-0.03C9.12,9.53,9.2,9.53,9.27,9.53c0.01,0,0.03,0,0.03,0c0.08,0.12,0.19,0.04,0.29,0.06
		c0.13,0.02,0.27,0.01,0.4,0.02c0.03,0,0.06,0,0.09,0c0.11,0.01,0.12-0.01,0.08-0.11c-0.06-0.15-0.13-0.3-0.18-0.45
		C9.94,8.9,9.92,8.75,9.9,8.6C9.86,8.38,9.83,8.17,9.8,7.95C9.78,7.81,9.77,7.67,9.74,7.54C9.72,7.41,9.69,7.28,9.66,7.14
		C9.65,7.06,9.63,6.98,9.61,6.91z M13.63,8.27c0-0.02,0-0.04,0-0.06c0-0.12-0.11-0.27-0.23-0.3c-0.1-0.02-0.19-0.05-0.29-0.07
		c-0.08-0.01-0.16-0.02-0.24-0.02c-0.14,0-0.29,0.01-0.43-0.01c-0.4-0.04-0.79,0-1.18,0.09C11.07,7.94,10.9,8,10.73,8.05
		c-0.12,0.04-0.24,0.1-0.36,0.13c-0.08,0.02-0.11,0.06-0.11,0.13c0,0.04,0,0.09,0.01,0.13c0.01,0.09,0.02,0.19,0.04,0.28
		c0.03,0.2,0.07,0.4,0.17,0.58c0.04,0.06,0.06,0.13,0.08,0.2c0.03,0.1,0.04,0.11,0.15,0.11c0.22-0.01,0.45-0.01,0.67-0.02
		C11.59,9.59,11.8,9.57,12,9.54c0.21-0.04,0.42-0.12,0.63-0.17c0.22-0.05,0.38-0.21,0.54-0.35c0.11-0.09,0.19-0.21,0.28-0.32
		C13.56,8.57,13.66,8.45,13.63,8.27z M11.9,6.95c-0.06-0.01-0.1-0.03-0.15-0.03c-0.28-0.02-0.55-0.03-0.83-0.04
		c-0.27-0.01-0.53-0.01-0.8-0.01c-0.09,0-0.12,0.03-0.11,0.12c0.01,0.07,0.04,0.13,0.05,0.2c0.02,0.15,0.04,0.29,0.06,0.44
		c0.01,0.07,0.06,0.09,0.12,0.07c0.14-0.05,0.27-0.11,0.41-0.16c0.06-0.02,0.12-0.02,0.17-0.04c0.09-0.03,0.17-0.08,0.25-0.12
		c0.2-0.09,0.41-0.17,0.61-0.26C11.77,7.09,11.85,7.04,11.9,6.95z"/>
	<path d="M3.32,7.99C3.5,7.96,3.66,7.93,3.82,7.91C3.91,7.89,4,7.88,4.09,7.86c0.26-0.04,0.51-0.07,0.77-0.1
		C5.07,7.74,5.28,7.72,5.49,7.7c0.16-0.02,0.31-0.03,0.47-0.05c0.05-0.01,0.1-0.01,0.15,0.03C6.16,7.71,6.24,7.7,6.3,7.7
		c0.1,0.01,0.21,0.01,0.31,0.02c0,0.01,0,0.02,0.01,0.03c-0.03,0.03-0.07,0.06-0.11,0.1c0.02,0.02,0.04,0.03,0.06,0.05
		C6.55,7.91,6.54,7.93,6.52,7.94C6.47,7.96,6.42,7.97,6.36,7.98C6.13,8,5.9,8.02,5.67,8.05c-0.23,0.03-0.46,0.07-0.69,0.1
		c-0.03,0-0.06,0.02-0.09,0.03C4.72,8.2,4.56,8.25,4.39,8.26c-0.2,0-0.38,0.07-0.57,0.1C3.65,8.39,3.48,8.41,3.31,8.43
		C3.23,8.44,3.16,8.45,3.08,8.46C2.96,8.49,2.94,8.54,2.99,8.65c0.05,0.13,0.15,0.21,0.27,0.26c0.23,0.08,0.46,0.16,0.69,0.21
		c0.21,0.04,0.43,0.05,0.64,0.06C4.8,9.2,5.02,9.21,5.23,9.22c0.26,0,0.52,0,0.78-0.01C6.15,9.2,6.28,9.17,6.42,9.14
		C6.61,9.11,6.8,9.07,7,9.03c0.12-0.03,0.24-0.06,0.36-0.09C7.5,8.91,7.65,8.88,7.79,8.85c0.08-0.02,0.17-0.03,0.25-0.04
		c0.1-0.01,0.14,0.03,0.12,0.13c-0.01,0.03-0.01,0.07-0.01,0.1C8.14,9.06,8.12,9.08,8.1,9.09C8,9.14,7.89,9.19,7.78,9.23
		C7.69,9.26,7.59,9.27,7.5,9.3C7.38,9.34,7.27,9.38,7.16,9.42C7.14,9.43,7.11,9.43,7.09,9.43C7.01,9.45,6.93,9.46,6.85,9.49
		c-0.13,0.04-0.26,0.1-0.39,0.12C6.27,9.65,6.09,9.7,5.89,9.69c-0.2-0.01-0.4,0-0.6,0c-0.16,0-0.31,0-0.47-0.01
		c-0.15-0.01-0.3-0.02-0.45-0.04C4.22,9.63,4.06,9.62,3.91,9.59C3.84,9.59,3.78,9.55,3.72,9.54c-0.21-0.02-0.4-0.11-0.58-0.2
		C3.04,9.3,2.94,9.23,2.87,9.13C2.8,9.05,2.72,8.98,2.67,8.88c-0.02-0.03-0.03-0.07-0.04-0.1C2.61,8.71,2.58,8.64,2.56,8.57
		c0-0.01-0.02-0.02-0.04-0.02c-0.08,0-0.16,0.01-0.24,0.02C2.15,8.58,2.02,8.6,1.89,8.63C1.83,8.64,1.76,8.65,1.68,8.67
		C1.64,8.61,1.56,8.64,1.49,8.65c-0.08,0.02-0.15,0.03-0.24,0c-0.06-0.02-0.13-0.02-0.2-0.02c-0.05,0-0.08-0.01-0.08-0.06
		c0-0.01-0.01-0.03-0.01-0.04c-0.05-0.06-0.1-0.12-0.14-0.18C0.78,8.3,0.84,8.24,0.93,8.21c0.2-0.07,0.41-0.04,0.62-0.06
		C1.7,8.14,1.85,8.14,2.01,8.13C2.15,8.12,2.3,8.1,2.45,8.08c0.01,0,0.02-0.01,0.02,0c0.16,0.04,0.22-0.06,0.29-0.17
		c0.1-0.16,0.2-0.31,0.35-0.43c0.11-0.09,0.19-0.21,0.29-0.3c0.12-0.11,0.26-0.2,0.39-0.3c0.04-0.03,0.08-0.07,0.13-0.09
		c0.11-0.05,0.22-0.1,0.33-0.15c0.13-0.05,0.26-0.1,0.4-0.14C4.9,6.42,5.15,6.35,5.41,6.28c0.19-0.05,0.38-0.09,0.56-0.12
		C6.25,6.1,6.53,6.04,6.81,6c0.08-0.01,0.15-0.04,0.24-0.01c0.06,0.02,0.13,0,0.2-0.01C7.48,5.95,7.68,6,7.84,6.18
		c0.05,0.06,0.08,0.16,0.09,0.24c0.02,0.11-0.04,0.14-0.14,0.12C7.77,6.56,7.75,6.58,7.73,6.61C7.71,6.6,7.68,6.59,7.67,6.58
		c-0.1-0.14-0.24-0.11-0.38-0.13c-0.17-0.02-0.33,0.01-0.5,0.02c-0.09,0-0.19,0.02-0.28,0.04C6.29,6.55,6.06,6.6,5.84,6.64
		c-0.1,0.02-0.2,0.05-0.31,0.07C5.36,6.76,5.19,6.8,5.02,6.85C4.94,6.88,4.86,6.91,4.77,6.94C4.65,6.99,4.53,7.02,4.41,7.08
		C4.29,7.13,4.17,7.2,4.06,7.27c-0.21,0.14-0.41,0.3-0.58,0.49C3.42,7.82,3.34,7.86,3.32,7.99z"/>
</g>
</svg>
